<mxfile host="app.diagrams.net" modified="2023-11-10T11:47:19.047Z" agent="Mozilla/5.0 (X11; Linux x86_64) AppleWebKit/537.36 (KHTML, like Gecko) Chrome/118.0.0.0 Safari/537.36" etag="3TJ_25nmxIAMpE1E0RRW" version="22.1.0" type="device">
  <diagram name="Page-1" id="aLDumv7ZB_m12PLqw1DP">
    <mxGraphModel dx="1363" dy="816" grid="1" gridSize="10" guides="1" tooltips="1" connect="1" arrows="1" fold="1" page="1" pageScale="1" pageWidth="1169" pageHeight="827" math="0" shadow="0">
      <root>
        <mxCell id="0" />
        <mxCell id="1" parent="0" />
        <mxCell id="2AOK2-xtjORCyAgQbEi5-1" value="" style="rounded=0;whiteSpace=wrap;html=1;" vertex="1" parent="1">
          <mxGeometry x="10" y="30" width="1160" height="780" as="geometry" />
        </mxCell>
        <mxCell id="acIyqmP19LNusN9XQ1-O-55" value="" style="ellipse;whiteSpace=wrap;html=1;aspect=fixed;" parent="1" vertex="1">
          <mxGeometry x="30" y="51" width="210" height="210" as="geometry" />
        </mxCell>
        <mxCell id="acIyqmP19LNusN9XQ1-O-2" value="main 1" style="rounded=0;whiteSpace=wrap;html=1;" parent="1" vertex="1">
          <mxGeometry x="100" y="56" width="80" height="40" as="geometry" />
        </mxCell>
        <mxCell id="acIyqmP19LNusN9XQ1-O-3" value="game" style="rounded=0;whiteSpace=wrap;html=1;" parent="1" vertex="1">
          <mxGeometry x="310" y="116" width="80" height="80" as="geometry" />
        </mxCell>
        <mxCell id="acIyqmP19LNusN9XQ1-O-4" value="main 2" style="rounded=0;whiteSpace=wrap;html=1;" parent="1" vertex="1">
          <mxGeometry x="100" y="136" width="80" height="40" as="geometry" />
        </mxCell>
        <mxCell id="acIyqmP19LNusN9XQ1-O-5" value="main 4" style="rounded=0;whiteSpace=wrap;html=1;" parent="1" vertex="1">
          <mxGeometry x="100" y="296" width="80" height="40" as="geometry" />
        </mxCell>
        <mxCell id="acIyqmP19LNusN9XQ1-O-6" value="" style="endArrow=classic;html=1;rounded=0;entryX=0;entryY=0.25;entryDx=0;entryDy=0;exitX=1;exitY=0.25;exitDx=0;exitDy=0;" parent="1" source="acIyqmP19LNusN9XQ1-O-2" target="acIyqmP19LNusN9XQ1-O-3" edge="1">
          <mxGeometry width="50" height="50" relative="1" as="geometry">
            <mxPoint x="170" y="226" as="sourcePoint" />
            <mxPoint x="220" y="176" as="targetPoint" />
          </mxGeometry>
        </mxCell>
        <mxCell id="acIyqmP19LNusN9XQ1-O-7" value="attack" style="edgeLabel;html=1;align=center;verticalAlign=middle;resizable=0;points=[];" parent="acIyqmP19LNusN9XQ1-O-6" vertex="1" connectable="0">
          <mxGeometry x="-0.0861" y="3" relative="1" as="geometry">
            <mxPoint as="offset" />
          </mxGeometry>
        </mxCell>
        <mxCell id="acIyqmP19LNusN9XQ1-O-8" value="" style="endArrow=classic;html=1;rounded=0;exitX=0;exitY=0.5;exitDx=0;exitDy=0;entryX=1;entryY=0.75;entryDx=0;entryDy=0;" parent="1" source="acIyqmP19LNusN9XQ1-O-3" target="acIyqmP19LNusN9XQ1-O-2" edge="1">
          <mxGeometry width="50" height="50" relative="1" as="geometry">
            <mxPoint x="170" y="226" as="sourcePoint" />
            <mxPoint x="220" y="176" as="targetPoint" />
          </mxGeometry>
        </mxCell>
        <mxCell id="acIyqmP19LNusN9XQ1-O-9" value="attack action reply" style="edgeLabel;html=1;align=center;verticalAlign=middle;resizable=0;points=[];" parent="acIyqmP19LNusN9XQ1-O-8" vertex="1" connectable="0">
          <mxGeometry x="0.1036" y="2" relative="1" as="geometry">
            <mxPoint x="-11" as="offset" />
          </mxGeometry>
        </mxCell>
        <mxCell id="acIyqmP19LNusN9XQ1-O-10" value="" style="endArrow=classic;html=1;rounded=0;exitX=0;exitY=0.5;exitDx=0;exitDy=0;entryX=1;entryY=0.5;entryDx=0;entryDy=0;" parent="1" source="acIyqmP19LNusN9XQ1-O-3" target="acIyqmP19LNusN9XQ1-O-4" edge="1">
          <mxGeometry width="50" height="50" relative="1" as="geometry">
            <mxPoint x="360" y="176" as="sourcePoint" />
            <mxPoint x="200" y="106" as="targetPoint" />
          </mxGeometry>
        </mxCell>
        <mxCell id="acIyqmP19LNusN9XQ1-O-11" value="attack action reply" style="edgeLabel;html=1;align=center;verticalAlign=middle;resizable=0;points=[];" parent="acIyqmP19LNusN9XQ1-O-10" vertex="1" connectable="0">
          <mxGeometry x="0.1846" y="2" relative="1" as="geometry">
            <mxPoint x="5" y="-2" as="offset" />
          </mxGeometry>
        </mxCell>
        <mxCell id="acIyqmP19LNusN9XQ1-O-12" value="" style="endArrow=classic;html=1;rounded=0;exitX=0;exitY=0.5;exitDx=0;exitDy=0;entryX=1;entryY=0.5;entryDx=0;entryDy=0;dashed=1;" parent="1" source="acIyqmP19LNusN9XQ1-O-3" target="acIyqmP19LNusN9XQ1-O-5" edge="1">
          <mxGeometry width="50" height="50" relative="1" as="geometry">
            <mxPoint x="360" y="176" as="sourcePoint" />
            <mxPoint x="200" y="156" as="targetPoint" />
          </mxGeometry>
        </mxCell>
        <mxCell id="acIyqmP19LNusN9XQ1-O-13" value="no attack action reply !" style="edgeLabel;html=1;align=center;verticalAlign=middle;resizable=0;points=[];" parent="acIyqmP19LNusN9XQ1-O-12" vertex="1" connectable="0">
          <mxGeometry x="0.1882" y="4" relative="1" as="geometry">
            <mxPoint x="12" y="7" as="offset" />
          </mxGeometry>
        </mxCell>
        <mxCell id="acIyqmP19LNusN9XQ1-O-50" value="" style="endArrow=classic;html=1;rounded=0;entryX=0.5;entryY=0;entryDx=0;entryDy=0;exitX=0.5;exitY=1;exitDx=0;exitDy=0;dashed=1;" parent="1" source="acIyqmP19LNusN9XQ1-O-2" target="acIyqmP19LNusN9XQ1-O-4" edge="1">
          <mxGeometry width="50" height="50" relative="1" as="geometry">
            <mxPoint x="190" y="76" as="sourcePoint" />
            <mxPoint x="350" y="166" as="targetPoint" />
          </mxGeometry>
        </mxCell>
        <mxCell id="acIyqmP19LNusN9XQ1-O-51" value="attack" style="edgeLabel;html=1;align=center;verticalAlign=middle;resizable=0;points=[];" parent="acIyqmP19LNusN9XQ1-O-50" vertex="1" connectable="0">
          <mxGeometry x="-0.0861" y="3" relative="1" as="geometry">
            <mxPoint as="offset" />
          </mxGeometry>
        </mxCell>
        <mxCell id="acIyqmP19LNusN9XQ1-O-52" value="main 3" style="rounded=0;whiteSpace=wrap;html=1;" parent="1" vertex="1">
          <mxGeometry x="100" y="216" width="80" height="40" as="geometry" />
        </mxCell>
        <mxCell id="acIyqmP19LNusN9XQ1-O-53" value="" style="endArrow=classic;html=1;rounded=0;exitX=0;exitY=0.5;exitDx=0;exitDy=0;entryX=1;entryY=0.5;entryDx=0;entryDy=0;" parent="1" source="acIyqmP19LNusN9XQ1-O-3" target="acIyqmP19LNusN9XQ1-O-52" edge="1">
          <mxGeometry width="50" height="50" relative="1" as="geometry">
            <mxPoint x="350" y="166" as="sourcePoint" />
            <mxPoint x="190" y="166" as="targetPoint" />
          </mxGeometry>
        </mxCell>
        <mxCell id="acIyqmP19LNusN9XQ1-O-54" value="attack action reply" style="edgeLabel;html=1;align=center;verticalAlign=middle;resizable=0;points=[];" parent="acIyqmP19LNusN9XQ1-O-53" vertex="1" connectable="0">
          <mxGeometry x="0.1846" y="2" relative="1" as="geometry">
            <mxPoint x="-6" y="-2" as="offset" />
          </mxGeometry>
        </mxCell>
        <mxCell id="acIyqmP19LNusN9XQ1-O-56" value="" style="ellipse;whiteSpace=wrap;html=1;aspect=fixed;" parent="1" vertex="1">
          <mxGeometry x="470" y="51" width="210" height="210" as="geometry" />
        </mxCell>
        <mxCell id="acIyqmP19LNusN9XQ1-O-57" value="main 1" style="rounded=0;whiteSpace=wrap;html=1;" parent="1" vertex="1">
          <mxGeometry x="540" y="56" width="80" height="40" as="geometry" />
        </mxCell>
        <mxCell id="acIyqmP19LNusN9XQ1-O-58" value="game" style="rounded=0;whiteSpace=wrap;html=1;" parent="1" vertex="1">
          <mxGeometry x="750" y="116" width="80" height="80" as="geometry" />
        </mxCell>
        <mxCell id="acIyqmP19LNusN9XQ1-O-59" value="main 2" style="rounded=0;whiteSpace=wrap;html=1;" parent="1" vertex="1">
          <mxGeometry x="540" y="136" width="80" height="40" as="geometry" />
        </mxCell>
        <mxCell id="acIyqmP19LNusN9XQ1-O-60" value="main 4" style="rounded=0;whiteSpace=wrap;html=1;" parent="1" vertex="1">
          <mxGeometry x="540" y="296" width="80" height="40" as="geometry" />
        </mxCell>
        <mxCell id="acIyqmP19LNusN9XQ1-O-61" value="" style="endArrow=classic;html=1;rounded=0;entryX=0;entryY=0.25;entryDx=0;entryDy=0;exitX=1;exitY=0.25;exitDx=0;exitDy=0;" parent="1" source="acIyqmP19LNusN9XQ1-O-57" target="acIyqmP19LNusN9XQ1-O-58" edge="1">
          <mxGeometry width="50" height="50" relative="1" as="geometry">
            <mxPoint x="610" y="226" as="sourcePoint" />
            <mxPoint x="660" y="176" as="targetPoint" />
          </mxGeometry>
        </mxCell>
        <mxCell id="acIyqmP19LNusN9XQ1-O-62" value="attack" style="edgeLabel;html=1;align=center;verticalAlign=middle;resizable=0;points=[];" parent="acIyqmP19LNusN9XQ1-O-61" vertex="1" connectable="0">
          <mxGeometry x="-0.0861" y="3" relative="1" as="geometry">
            <mxPoint as="offset" />
          </mxGeometry>
        </mxCell>
        <mxCell id="acIyqmP19LNusN9XQ1-O-63" value="" style="endArrow=classic;html=1;rounded=0;exitX=0;exitY=0.5;exitDx=0;exitDy=0;entryX=1;entryY=0.75;entryDx=0;entryDy=0;" parent="1" source="acIyqmP19LNusN9XQ1-O-58" target="acIyqmP19LNusN9XQ1-O-57" edge="1">
          <mxGeometry width="50" height="50" relative="1" as="geometry">
            <mxPoint x="610" y="226" as="sourcePoint" />
            <mxPoint x="660" y="176" as="targetPoint" />
          </mxGeometry>
        </mxCell>
        <mxCell id="acIyqmP19LNusN9XQ1-O-64" value="attack damage reply" style="edgeLabel;html=1;align=center;verticalAlign=middle;resizable=0;points=[];" parent="acIyqmP19LNusN9XQ1-O-63" vertex="1" connectable="0">
          <mxGeometry x="0.1036" y="2" relative="1" as="geometry">
            <mxPoint x="-11" as="offset" />
          </mxGeometry>
        </mxCell>
        <mxCell id="acIyqmP19LNusN9XQ1-O-65" value="" style="endArrow=classic;html=1;rounded=0;exitX=0;exitY=0.5;exitDx=0;exitDy=0;entryX=1;entryY=0.5;entryDx=0;entryDy=0;" parent="1" source="acIyqmP19LNusN9XQ1-O-58" target="acIyqmP19LNusN9XQ1-O-59" edge="1">
          <mxGeometry width="50" height="50" relative="1" as="geometry">
            <mxPoint x="800" y="176" as="sourcePoint" />
            <mxPoint x="640" y="106" as="targetPoint" />
          </mxGeometry>
        </mxCell>
        <mxCell id="acIyqmP19LNusN9XQ1-O-66" value="attack damage reply" style="edgeLabel;html=1;align=center;verticalAlign=middle;resizable=0;points=[];" parent="acIyqmP19LNusN9XQ1-O-65" vertex="1" connectable="0">
          <mxGeometry x="0.1846" y="2" relative="1" as="geometry">
            <mxPoint x="5" y="-2" as="offset" />
          </mxGeometry>
        </mxCell>
        <mxCell id="acIyqmP19LNusN9XQ1-O-67" value="" style="endArrow=classic;html=1;rounded=0;exitX=0;exitY=0.5;exitDx=0;exitDy=0;entryX=1;entryY=0.5;entryDx=0;entryDy=0;dashed=1;" parent="1" source="acIyqmP19LNusN9XQ1-O-58" target="acIyqmP19LNusN9XQ1-O-60" edge="1">
          <mxGeometry width="50" height="50" relative="1" as="geometry">
            <mxPoint x="800" y="176" as="sourcePoint" />
            <mxPoint x="640" y="156" as="targetPoint" />
          </mxGeometry>
        </mxCell>
        <mxCell id="acIyqmP19LNusN9XQ1-O-68" value="no attack damage reply !" style="edgeLabel;html=1;align=center;verticalAlign=middle;resizable=0;points=[];" parent="acIyqmP19LNusN9XQ1-O-67" vertex="1" connectable="0">
          <mxGeometry x="0.1882" y="4" relative="1" as="geometry">
            <mxPoint x="12" y="7" as="offset" />
          </mxGeometry>
        </mxCell>
        <mxCell id="acIyqmP19LNusN9XQ1-O-69" value="" style="endArrow=classic;html=1;rounded=0;entryX=0.5;entryY=0;entryDx=0;entryDy=0;exitX=0.5;exitY=1;exitDx=0;exitDy=0;dashed=1;" parent="1" source="acIyqmP19LNusN9XQ1-O-57" target="acIyqmP19LNusN9XQ1-O-59" edge="1">
          <mxGeometry width="50" height="50" relative="1" as="geometry">
            <mxPoint x="630" y="76" as="sourcePoint" />
            <mxPoint x="790" y="166" as="targetPoint" />
          </mxGeometry>
        </mxCell>
        <mxCell id="acIyqmP19LNusN9XQ1-O-70" value="attack" style="edgeLabel;html=1;align=center;verticalAlign=middle;resizable=0;points=[];" parent="acIyqmP19LNusN9XQ1-O-69" vertex="1" connectable="0">
          <mxGeometry x="-0.0861" y="3" relative="1" as="geometry">
            <mxPoint as="offset" />
          </mxGeometry>
        </mxCell>
        <mxCell id="acIyqmP19LNusN9XQ1-O-71" value="main 3" style="rounded=0;whiteSpace=wrap;html=1;" parent="1" vertex="1">
          <mxGeometry x="540" y="216" width="80" height="40" as="geometry" />
        </mxCell>
        <mxCell id="acIyqmP19LNusN9XQ1-O-72" value="" style="endArrow=classic;html=1;rounded=0;exitX=0;exitY=0.5;exitDx=0;exitDy=0;entryX=1;entryY=0.5;entryDx=0;entryDy=0;dashed=1;" parent="1" source="acIyqmP19LNusN9XQ1-O-58" target="acIyqmP19LNusN9XQ1-O-71" edge="1">
          <mxGeometry width="50" height="50" relative="1" as="geometry">
            <mxPoint x="790" y="166" as="sourcePoint" />
            <mxPoint x="630" y="166" as="targetPoint" />
          </mxGeometry>
        </mxCell>
        <mxCell id="acIyqmP19LNusN9XQ1-O-73" value="no attack damage reply !" style="edgeLabel;html=1;align=center;verticalAlign=middle;resizable=0;points=[];" parent="acIyqmP19LNusN9XQ1-O-72" vertex="1" connectable="0">
          <mxGeometry x="0.1846" y="2" relative="1" as="geometry">
            <mxPoint x="-16" y="-4" as="offset" />
          </mxGeometry>
        </mxCell>
        <mxCell id="acIyqmP19LNusN9XQ1-O-74" value="" style="ellipse;whiteSpace=wrap;html=1;aspect=fixed;" parent="1" vertex="1">
          <mxGeometry x="30" y="491" width="210" height="210" as="geometry" />
        </mxCell>
        <mxCell id="acIyqmP19LNusN9XQ1-O-75" value="main 1" style="rounded=0;whiteSpace=wrap;html=1;" parent="1" vertex="1">
          <mxGeometry x="100" y="496" width="80" height="40" as="geometry" />
        </mxCell>
        <mxCell id="acIyqmP19LNusN9XQ1-O-76" value="game" style="rounded=0;whiteSpace=wrap;html=1;" parent="1" vertex="1">
          <mxGeometry x="310" y="556" width="80" height="80" as="geometry" />
        </mxCell>
        <mxCell id="acIyqmP19LNusN9XQ1-O-77" value="main 2" style="rounded=0;whiteSpace=wrap;html=1;" parent="1" vertex="1">
          <mxGeometry x="100" y="576" width="80" height="40" as="geometry" />
        </mxCell>
        <mxCell id="acIyqmP19LNusN9XQ1-O-78" value="main 4" style="rounded=0;whiteSpace=wrap;html=1;" parent="1" vertex="1">
          <mxGeometry x="100" y="736" width="80" height="40" as="geometry" />
        </mxCell>
        <mxCell id="acIyqmP19LNusN9XQ1-O-79" value="" style="endArrow=classic;html=1;rounded=0;entryX=0;entryY=0.25;entryDx=0;entryDy=0;exitX=1;exitY=0.25;exitDx=0;exitDy=0;" parent="1" source="acIyqmP19LNusN9XQ1-O-75" target="acIyqmP19LNusN9XQ1-O-76" edge="1">
          <mxGeometry width="50" height="50" relative="1" as="geometry">
            <mxPoint x="170" y="666" as="sourcePoint" />
            <mxPoint x="220" y="616" as="targetPoint" />
          </mxGeometry>
        </mxCell>
        <mxCell id="acIyqmP19LNusN9XQ1-O-80" value="attack" style="edgeLabel;html=1;align=center;verticalAlign=middle;resizable=0;points=[];" parent="acIyqmP19LNusN9XQ1-O-79" vertex="1" connectable="0">
          <mxGeometry x="-0.0861" y="3" relative="1" as="geometry">
            <mxPoint as="offset" />
          </mxGeometry>
        </mxCell>
        <mxCell id="acIyqmP19LNusN9XQ1-O-81" value="" style="endArrow=classic;html=1;rounded=0;exitX=0;exitY=0.5;exitDx=0;exitDy=0;entryX=1;entryY=0.75;entryDx=0;entryDy=0;" parent="1" source="acIyqmP19LNusN9XQ1-O-76" target="acIyqmP19LNusN9XQ1-O-75" edge="1">
          <mxGeometry width="50" height="50" relative="1" as="geometry">
            <mxPoint x="170" y="666" as="sourcePoint" />
            <mxPoint x="220" y="616" as="targetPoint" />
          </mxGeometry>
        </mxCell>
        <mxCell id="acIyqmP19LNusN9XQ1-O-82" value="attack effect reply" style="edgeLabel;html=1;align=center;verticalAlign=middle;resizable=0;points=[];" parent="acIyqmP19LNusN9XQ1-O-81" vertex="1" connectable="0">
          <mxGeometry x="0.1036" y="2" relative="1" as="geometry">
            <mxPoint x="-11" as="offset" />
          </mxGeometry>
        </mxCell>
        <mxCell id="acIyqmP19LNusN9XQ1-O-83" value="" style="endArrow=classic;html=1;rounded=0;exitX=0;exitY=0.5;exitDx=0;exitDy=0;entryX=1;entryY=0.5;entryDx=0;entryDy=0;" parent="1" source="acIyqmP19LNusN9XQ1-O-76" target="acIyqmP19LNusN9XQ1-O-77" edge="1">
          <mxGeometry width="50" height="50" relative="1" as="geometry">
            <mxPoint x="360" y="616" as="sourcePoint" />
            <mxPoint x="200" y="546" as="targetPoint" />
          </mxGeometry>
        </mxCell>
        <mxCell id="acIyqmP19LNusN9XQ1-O-84" value="attack effect reply" style="edgeLabel;html=1;align=center;verticalAlign=middle;resizable=0;points=[];" parent="acIyqmP19LNusN9XQ1-O-83" vertex="1" connectable="0">
          <mxGeometry x="0.1846" y="2" relative="1" as="geometry">
            <mxPoint x="5" y="-2" as="offset" />
          </mxGeometry>
        </mxCell>
        <mxCell id="acIyqmP19LNusN9XQ1-O-85" value="" style="endArrow=classic;html=1;rounded=0;exitX=0;exitY=0.5;exitDx=0;exitDy=0;entryX=1;entryY=0.5;entryDx=0;entryDy=0;dashed=1;" parent="1" source="acIyqmP19LNusN9XQ1-O-76" target="acIyqmP19LNusN9XQ1-O-78" edge="1">
          <mxGeometry width="50" height="50" relative="1" as="geometry">
            <mxPoint x="360" y="616" as="sourcePoint" />
            <mxPoint x="200" y="596" as="targetPoint" />
          </mxGeometry>
        </mxCell>
        <mxCell id="acIyqmP19LNusN9XQ1-O-86" value="no attack effect reply !" style="edgeLabel;html=1;align=center;verticalAlign=middle;resizable=0;points=[];" parent="acIyqmP19LNusN9XQ1-O-85" vertex="1" connectable="0">
          <mxGeometry x="0.1882" y="4" relative="1" as="geometry">
            <mxPoint x="12" y="7" as="offset" />
          </mxGeometry>
        </mxCell>
        <mxCell id="acIyqmP19LNusN9XQ1-O-87" value="" style="endArrow=classic;html=1;rounded=0;entryX=0.5;entryY=0;entryDx=0;entryDy=0;exitX=0.5;exitY=1;exitDx=0;exitDy=0;dashed=1;" parent="1" source="acIyqmP19LNusN9XQ1-O-75" target="acIyqmP19LNusN9XQ1-O-77" edge="1">
          <mxGeometry width="50" height="50" relative="1" as="geometry">
            <mxPoint x="190" y="516" as="sourcePoint" />
            <mxPoint x="350" y="606" as="targetPoint" />
          </mxGeometry>
        </mxCell>
        <mxCell id="acIyqmP19LNusN9XQ1-O-88" value="attack" style="edgeLabel;html=1;align=center;verticalAlign=middle;resizable=0;points=[];" parent="acIyqmP19LNusN9XQ1-O-87" vertex="1" connectable="0">
          <mxGeometry x="-0.0861" y="3" relative="1" as="geometry">
            <mxPoint as="offset" />
          </mxGeometry>
        </mxCell>
        <mxCell id="acIyqmP19LNusN9XQ1-O-89" value="main 3" style="rounded=0;whiteSpace=wrap;html=1;" parent="1" vertex="1">
          <mxGeometry x="100" y="656" width="80" height="40" as="geometry" />
        </mxCell>
        <mxCell id="acIyqmP19LNusN9XQ1-O-90" value="" style="endArrow=classic;html=1;rounded=0;exitX=0;exitY=0.5;exitDx=0;exitDy=0;entryX=1;entryY=0.5;entryDx=0;entryDy=0;" parent="1" source="acIyqmP19LNusN9XQ1-O-76" target="acIyqmP19LNusN9XQ1-O-89" edge="1">
          <mxGeometry width="50" height="50" relative="1" as="geometry">
            <mxPoint x="350" y="606" as="sourcePoint" />
            <mxPoint x="190" y="606" as="targetPoint" />
          </mxGeometry>
        </mxCell>
        <mxCell id="acIyqmP19LNusN9XQ1-O-91" value="attack effect reply" style="edgeLabel;html=1;align=center;verticalAlign=middle;resizable=0;points=[];" parent="acIyqmP19LNusN9XQ1-O-90" vertex="1" connectable="0">
          <mxGeometry x="0.1846" y="2" relative="1" as="geometry">
            <mxPoint x="-16" y="-4" as="offset" />
          </mxGeometry>
        </mxCell>
        <mxCell id="acIyqmP19LNusN9XQ1-O-94" value="" style="ellipse;whiteSpace=wrap;html=1;aspect=fixed;" parent="1" vertex="1">
          <mxGeometry x="470" y="491" width="210" height="210" as="geometry" />
        </mxCell>
        <mxCell id="acIyqmP19LNusN9XQ1-O-95" value="main 1" style="rounded=0;whiteSpace=wrap;html=1;" parent="1" vertex="1">
          <mxGeometry x="540" y="496" width="80" height="40" as="geometry" />
        </mxCell>
        <mxCell id="acIyqmP19LNusN9XQ1-O-96" value="game" style="rounded=0;whiteSpace=wrap;html=1;" parent="1" vertex="1">
          <mxGeometry x="750" y="556" width="80" height="80" as="geometry" />
        </mxCell>
        <mxCell id="acIyqmP19LNusN9XQ1-O-97" value="main 2" style="rounded=0;whiteSpace=wrap;html=1;" parent="1" vertex="1">
          <mxGeometry x="540" y="576" width="80" height="40" as="geometry" />
        </mxCell>
        <mxCell id="acIyqmP19LNusN9XQ1-O-98" value="main 4" style="rounded=0;whiteSpace=wrap;html=1;" parent="1" vertex="1">
          <mxGeometry x="540" y="736" width="80" height="40" as="geometry" />
        </mxCell>
        <mxCell id="acIyqmP19LNusN9XQ1-O-99" value="" style="endArrow=classic;html=1;rounded=0;entryX=0;entryY=0.25;entryDx=0;entryDy=0;exitX=1;exitY=0.25;exitDx=0;exitDy=0;" parent="1" source="acIyqmP19LNusN9XQ1-O-95" target="acIyqmP19LNusN9XQ1-O-96" edge="1">
          <mxGeometry width="50" height="50" relative="1" as="geometry">
            <mxPoint x="610" y="666" as="sourcePoint" />
            <mxPoint x="660" y="616" as="targetPoint" />
          </mxGeometry>
        </mxCell>
        <mxCell id="acIyqmP19LNusN9XQ1-O-100" value="attack" style="edgeLabel;html=1;align=center;verticalAlign=middle;resizable=0;points=[];" parent="acIyqmP19LNusN9XQ1-O-99" vertex="1" connectable="0">
          <mxGeometry x="-0.0861" y="3" relative="1" as="geometry">
            <mxPoint as="offset" />
          </mxGeometry>
        </mxCell>
        <mxCell id="acIyqmP19LNusN9XQ1-O-101" value="" style="endArrow=classic;html=1;rounded=0;exitX=0;exitY=0.5;exitDx=0;exitDy=0;entryX=1;entryY=0.75;entryDx=0;entryDy=0;" parent="1" source="acIyqmP19LNusN9XQ1-O-96" target="acIyqmP19LNusN9XQ1-O-95" edge="1">
          <mxGeometry width="50" height="50" relative="1" as="geometry">
            <mxPoint x="610" y="666" as="sourcePoint" />
            <mxPoint x="660" y="616" as="targetPoint" />
          </mxGeometry>
        </mxCell>
        <mxCell id="acIyqmP19LNusN9XQ1-O-102" value="attack hp reply" style="edgeLabel;html=1;align=center;verticalAlign=middle;resizable=0;points=[];" parent="acIyqmP19LNusN9XQ1-O-101" vertex="1" connectable="0">
          <mxGeometry x="0.1036" y="2" relative="1" as="geometry">
            <mxPoint x="-11" as="offset" />
          </mxGeometry>
        </mxCell>
        <mxCell id="acIyqmP19LNusN9XQ1-O-103" value="" style="endArrow=classic;html=1;rounded=0;exitX=0;exitY=0.5;exitDx=0;exitDy=0;entryX=1;entryY=0.5;entryDx=0;entryDy=0;" parent="1" source="acIyqmP19LNusN9XQ1-O-96" target="acIyqmP19LNusN9XQ1-O-97" edge="1">
          <mxGeometry width="50" height="50" relative="1" as="geometry">
            <mxPoint x="800" y="616" as="sourcePoint" />
            <mxPoint x="640" y="546" as="targetPoint" />
          </mxGeometry>
        </mxCell>
        <mxCell id="acIyqmP19LNusN9XQ1-O-104" value="attack hp reply" style="edgeLabel;html=1;align=center;verticalAlign=middle;resizable=0;points=[];" parent="acIyqmP19LNusN9XQ1-O-103" vertex="1" connectable="0">
          <mxGeometry x="0.1846" y="2" relative="1" as="geometry">
            <mxPoint x="5" y="-2" as="offset" />
          </mxGeometry>
        </mxCell>
        <mxCell id="acIyqmP19LNusN9XQ1-O-105" value="" style="endArrow=classic;html=1;rounded=0;exitX=0;exitY=0.5;exitDx=0;exitDy=0;entryX=1;entryY=0.5;entryDx=0;entryDy=0;dashed=1;" parent="1" source="acIyqmP19LNusN9XQ1-O-96" target="acIyqmP19LNusN9XQ1-O-98" edge="1">
          <mxGeometry width="50" height="50" relative="1" as="geometry">
            <mxPoint x="800" y="616" as="sourcePoint" />
            <mxPoint x="640" y="596" as="targetPoint" />
          </mxGeometry>
        </mxCell>
        <mxCell id="acIyqmP19LNusN9XQ1-O-106" value="no attack hp reply !" style="edgeLabel;html=1;align=center;verticalAlign=middle;resizable=0;points=[];" parent="acIyqmP19LNusN9XQ1-O-105" vertex="1" connectable="0">
          <mxGeometry x="0.1882" y="4" relative="1" as="geometry">
            <mxPoint x="12" y="7" as="offset" />
          </mxGeometry>
        </mxCell>
        <mxCell id="acIyqmP19LNusN9XQ1-O-107" value="" style="endArrow=classic;html=1;rounded=0;entryX=0.5;entryY=0;entryDx=0;entryDy=0;exitX=0.5;exitY=1;exitDx=0;exitDy=0;dashed=1;" parent="1" source="acIyqmP19LNusN9XQ1-O-95" target="acIyqmP19LNusN9XQ1-O-97" edge="1">
          <mxGeometry width="50" height="50" relative="1" as="geometry">
            <mxPoint x="630" y="516" as="sourcePoint" />
            <mxPoint x="790" y="606" as="targetPoint" />
          </mxGeometry>
        </mxCell>
        <mxCell id="acIyqmP19LNusN9XQ1-O-108" value="attack" style="edgeLabel;html=1;align=center;verticalAlign=middle;resizable=0;points=[];" parent="acIyqmP19LNusN9XQ1-O-107" vertex="1" connectable="0">
          <mxGeometry x="-0.0861" y="3" relative="1" as="geometry">
            <mxPoint as="offset" />
          </mxGeometry>
        </mxCell>
        <mxCell id="acIyqmP19LNusN9XQ1-O-109" value="main 3" style="rounded=0;whiteSpace=wrap;html=1;" parent="1" vertex="1">
          <mxGeometry x="540" y="656" width="80" height="40" as="geometry" />
        </mxCell>
        <mxCell id="acIyqmP19LNusN9XQ1-O-110" value="" style="endArrow=classic;html=1;rounded=0;exitX=0;exitY=0.5;exitDx=0;exitDy=0;entryX=1;entryY=0.5;entryDx=0;entryDy=0;" parent="1" source="acIyqmP19LNusN9XQ1-O-96" target="acIyqmP19LNusN9XQ1-O-109" edge="1">
          <mxGeometry width="50" height="50" relative="1" as="geometry">
            <mxPoint x="790" y="606" as="sourcePoint" />
            <mxPoint x="630" y="606" as="targetPoint" />
          </mxGeometry>
        </mxCell>
        <mxCell id="acIyqmP19LNusN9XQ1-O-111" value="attack hp reply" style="edgeLabel;html=1;align=center;verticalAlign=middle;resizable=0;points=[];" parent="acIyqmP19LNusN9XQ1-O-110" vertex="1" connectable="0">
          <mxGeometry x="0.1846" y="2" relative="1" as="geometry">
            <mxPoint x="-16" y="-4" as="offset" />
          </mxGeometry>
        </mxCell>
        <mxCell id="acIyqmP19LNusN9XQ1-O-112" value="" style="ellipse;whiteSpace=wrap;html=1;aspect=fixed;" parent="1" vertex="1">
          <mxGeometry x="790" y="251" width="210" height="210" as="geometry" />
        </mxCell>
        <mxCell id="acIyqmP19LNusN9XQ1-O-113" value="main 1" style="rounded=0;whiteSpace=wrap;html=1;" parent="1" vertex="1">
          <mxGeometry x="860" y="256" width="80" height="40" as="geometry" />
        </mxCell>
        <mxCell id="acIyqmP19LNusN9XQ1-O-114" value="game" style="rounded=0;whiteSpace=wrap;html=1;" parent="1" vertex="1">
          <mxGeometry x="1070" y="316" width="80" height="80" as="geometry" />
        </mxCell>
        <mxCell id="acIyqmP19LNusN9XQ1-O-115" value="main 2" style="rounded=0;whiteSpace=wrap;html=1;" parent="1" vertex="1">
          <mxGeometry x="860" y="336" width="80" height="40" as="geometry" />
        </mxCell>
        <mxCell id="acIyqmP19LNusN9XQ1-O-116" value="main 4" style="rounded=0;whiteSpace=wrap;html=1;" parent="1" vertex="1">
          <mxGeometry x="860" y="496" width="80" height="40" as="geometry" />
        </mxCell>
        <mxCell id="acIyqmP19LNusN9XQ1-O-117" value="" style="endArrow=classic;html=1;rounded=0;entryX=0;entryY=0.25;entryDx=0;entryDy=0;exitX=1;exitY=0.25;exitDx=0;exitDy=0;" parent="1" source="acIyqmP19LNusN9XQ1-O-113" target="acIyqmP19LNusN9XQ1-O-114" edge="1">
          <mxGeometry width="50" height="50" relative="1" as="geometry">
            <mxPoint x="930" y="426" as="sourcePoint" />
            <mxPoint x="980" y="376" as="targetPoint" />
          </mxGeometry>
        </mxCell>
        <mxCell id="acIyqmP19LNusN9XQ1-O-118" value="attack" style="edgeLabel;html=1;align=center;verticalAlign=middle;resizable=0;points=[];" parent="acIyqmP19LNusN9XQ1-O-117" vertex="1" connectable="0">
          <mxGeometry x="-0.0861" y="3" relative="1" as="geometry">
            <mxPoint as="offset" />
          </mxGeometry>
        </mxCell>
        <mxCell id="acIyqmP19LNusN9XQ1-O-119" value="" style="endArrow=classic;html=1;rounded=0;exitX=0;exitY=0.5;exitDx=0;exitDy=0;entryX=1;entryY=0.75;entryDx=0;entryDy=0;" parent="1" source="acIyqmP19LNusN9XQ1-O-114" target="acIyqmP19LNusN9XQ1-O-113" edge="1">
          <mxGeometry width="50" height="50" relative="1" as="geometry">
            <mxPoint x="930" y="426" as="sourcePoint" />
            <mxPoint x="980" y="376" as="targetPoint" />
          </mxGeometry>
        </mxCell>
        <mxCell id="acIyqmP19LNusN9XQ1-O-120" value="attack die reply" style="edgeLabel;html=1;align=center;verticalAlign=middle;resizable=0;points=[];" parent="acIyqmP19LNusN9XQ1-O-119" vertex="1" connectable="0">
          <mxGeometry x="0.1036" y="2" relative="1" as="geometry">
            <mxPoint x="-11" as="offset" />
          </mxGeometry>
        </mxCell>
        <mxCell id="acIyqmP19LNusN9XQ1-O-121" value="" style="endArrow=classic;html=1;rounded=0;exitX=0;exitY=0.5;exitDx=0;exitDy=0;entryX=1;entryY=0.5;entryDx=0;entryDy=0;" parent="1" source="acIyqmP19LNusN9XQ1-O-114" target="acIyqmP19LNusN9XQ1-O-115" edge="1">
          <mxGeometry width="50" height="50" relative="1" as="geometry">
            <mxPoint x="1120" y="376" as="sourcePoint" />
            <mxPoint x="960" y="306" as="targetPoint" />
          </mxGeometry>
        </mxCell>
        <mxCell id="acIyqmP19LNusN9XQ1-O-122" value="attack die reply" style="edgeLabel;html=1;align=center;verticalAlign=middle;resizable=0;points=[];" parent="acIyqmP19LNusN9XQ1-O-121" vertex="1" connectable="0">
          <mxGeometry x="0.1846" y="2" relative="1" as="geometry">
            <mxPoint x="5" y="-2" as="offset" />
          </mxGeometry>
        </mxCell>
        <mxCell id="acIyqmP19LNusN9XQ1-O-123" value="" style="endArrow=classic;html=1;rounded=0;exitX=0;exitY=0.5;exitDx=0;exitDy=0;entryX=1;entryY=0.5;entryDx=0;entryDy=0;dashed=1;" parent="1" source="acIyqmP19LNusN9XQ1-O-114" target="acIyqmP19LNusN9XQ1-O-116" edge="1">
          <mxGeometry width="50" height="50" relative="1" as="geometry">
            <mxPoint x="1120" y="376" as="sourcePoint" />
            <mxPoint x="960" y="356" as="targetPoint" />
          </mxGeometry>
        </mxCell>
        <mxCell id="acIyqmP19LNusN9XQ1-O-124" value="no attack die reply !" style="edgeLabel;html=1;align=center;verticalAlign=middle;resizable=0;points=[];" parent="acIyqmP19LNusN9XQ1-O-123" vertex="1" connectable="0">
          <mxGeometry x="0.1882" y="4" relative="1" as="geometry">
            <mxPoint x="12" y="7" as="offset" />
          </mxGeometry>
        </mxCell>
        <mxCell id="acIyqmP19LNusN9XQ1-O-125" value="" style="endArrow=classic;html=1;rounded=0;entryX=0.5;entryY=0;entryDx=0;entryDy=0;exitX=0.5;exitY=1;exitDx=0;exitDy=0;dashed=1;" parent="1" source="acIyqmP19LNusN9XQ1-O-113" target="acIyqmP19LNusN9XQ1-O-115" edge="1">
          <mxGeometry width="50" height="50" relative="1" as="geometry">
            <mxPoint x="950" y="276" as="sourcePoint" />
            <mxPoint x="1110" y="366" as="targetPoint" />
          </mxGeometry>
        </mxCell>
        <mxCell id="acIyqmP19LNusN9XQ1-O-126" value="attack" style="edgeLabel;html=1;align=center;verticalAlign=middle;resizable=0;points=[];" parent="acIyqmP19LNusN9XQ1-O-125" vertex="1" connectable="0">
          <mxGeometry x="-0.0861" y="3" relative="1" as="geometry">
            <mxPoint as="offset" />
          </mxGeometry>
        </mxCell>
        <mxCell id="acIyqmP19LNusN9XQ1-O-127" value="main 3" style="rounded=0;whiteSpace=wrap;html=1;" parent="1" vertex="1">
          <mxGeometry x="860" y="416" width="80" height="40" as="geometry" />
        </mxCell>
        <mxCell id="acIyqmP19LNusN9XQ1-O-128" value="" style="endArrow=classic;html=1;rounded=0;exitX=0;exitY=0.5;exitDx=0;exitDy=0;entryX=1;entryY=0.5;entryDx=0;entryDy=0;" parent="1" source="acIyqmP19LNusN9XQ1-O-114" target="acIyqmP19LNusN9XQ1-O-127" edge="1">
          <mxGeometry width="50" height="50" relative="1" as="geometry">
            <mxPoint x="1110" y="366" as="sourcePoint" />
            <mxPoint x="950" y="366" as="targetPoint" />
          </mxGeometry>
        </mxCell>
        <mxCell id="acIyqmP19LNusN9XQ1-O-129" value="attack die reply" style="edgeLabel;html=1;align=center;verticalAlign=middle;resizable=0;points=[];" parent="acIyqmP19LNusN9XQ1-O-128" vertex="1" connectable="0">
          <mxGeometry x="0.1846" y="2" relative="1" as="geometry">
            <mxPoint x="-16" y="-4" as="offset" />
          </mxGeometry>
        </mxCell>
      </root>
    </mxGraphModel>
  </diagram>
</mxfile>
